<?xml version="1.0" encoding="UTF-8" standalone="no"?>
<!DOCTYPE svg PUBLIC "-//W3C//DTD SVG 1.1//EN"
 "http://www.w3.org/Graphics/SVG/1.1/DTD/svg11.dtd">
<!-- Generated by graphviz version 2.47.0 (20210316.0004)
 -->
<!-- Title: dependencies Pages: 1 -->
<svg width="504pt" height="284pt"
 viewBox="0.00 0.00 504.00 284.00" xmlns="http://www.w3.org/2000/svg" xmlns:xlink="http://www.w3.org/1999/xlink">
<g id="graph0" class="graph" transform="scale(1 1) rotate(0) translate(4 280)">
<title>dependencies</title>
<polygon fill="white" stroke="transparent" points="-4,4 -4,-280 500,-280 500,4 -4,4"/>
<text text-anchor="start" x="227.01" y="-42.4" font-family="Times-12" font-weight="bold" font-size="14.00">Legend</text>
<polygon fill="#ffffb3" stroke="transparent" points="14,-10 14,-30 34,-30 34,-10 14,-10"/>
<text text-anchor="start" x="37.63" y="-15.4" font-family="Times-12" font-size="14.00"> &#160;Declarations</text>
<polygon fill="#8dd3c7" stroke="transparent" points="127,-10 127,-30 147,-30 147,-10 127,-10"/>
<text text-anchor="start" x="150.73" y="-15.4" font-family="Times-12" font-size="14.00"> &#160;Module</text>
<polygon fill="#80b1d3" stroke="transparent" points="213,-10 213,-30 233,-30 233,-10 213,-10"/>
<text text-anchor="start" x="236.78" y="-15.4" font-family="Times-12" font-size="14.00"> &#160;Bootstrap</text>
<polygon fill="#fdb462" stroke="transparent" points="310,-10 310,-30 330,-30 330,-10 310,-10"/>
<text text-anchor="start" x="333.67" y="-15.4" font-family="Times-12" font-size="14.00"> &#160;Providers</text>
<polygon fill="#fb8072" stroke="transparent" points="406,-10 406,-30 426,-30 426,-10 406,-10"/>
<text text-anchor="start" x="429.73" y="-15.4" font-family="Times-12" font-size="14.00"> &#160;Exports</text>
<g id="clust1" class="cluster">
<title>cluster_CongaModule</title>
<polygon fill="none" stroke="black" stroke-dasharray="1,5" points="24,-70 24,-268 472,-268 472,-70 24,-70"/>
</g>
<g id="clust2" class="cluster">
<title>cluster_CongaModule_declarations</title>
<polygon fill="none" stroke="black" points="41,-78 41,-130 458,-130 458,-78 41,-78"/>
</g>
<g id="clust8" class="cluster">
<title>cluster_CongaModule_exports</title>
<polygon fill="none" stroke="black" points="32,-208 32,-260 464,-260 464,-208 32,-208"/>
</g>
<!-- FileSizePipe -->
<g id="node1" class="node">
<title>FileSizePipe</title>
<polygon fill="#ffffb3" stroke="black" points="450.27,-122 363.73,-122 363.73,-86 450.27,-86 450.27,-122"/>
<text text-anchor="middle" x="407" y="-99.8" font-family="Times,serif" font-size="14.00">FileSizePipe</text>
</g>
<!-- CongaModule -->
<g id="node5" class="node">
<title>CongaModule</title>
<polygon fill="#8dd3c7" stroke="black" points="255.1,-187 252.1,-191 231.1,-191 228.1,-187 158.9,-187 158.9,-151 255.1,-151 255.1,-187"/>
<text text-anchor="middle" x="207" y="-164.8" font-family="Times,serif" font-size="14.00">CongaModule</text>
</g>
<!-- FileSizePipe&#45;&gt;CongaModule -->
<g id="edge1" class="edge">
<title>FileSizePipe&#45;&gt;CongaModule</title>
<path fill="none" stroke="black" d="M422.21,-122.27C422.21,-140.56 422.21,-166 422.21,-166 422.21,-166 265.3,-166 265.3,-166"/>
<polygon fill="black" stroke="black" points="265.3,-162.5 255.3,-166 265.3,-169.5 265.3,-162.5"/>
</g>
<!-- ImagePipe -->
<g id="node2" class="node">
<title>ImagePipe</title>
<polygon fill="#ffffb3" stroke="black" points="345.87,-122 270.13,-122 270.13,-86 345.87,-86 345.87,-122"/>
<text text-anchor="middle" x="308" y="-99.8" font-family="Times,serif" font-size="14.00">ImagePipe</text>
</g>
<!-- ImagePipe&#45;&gt;CongaModule -->
<g id="edge2" class="edge">
<title>ImagePipe&#45;&gt;CongaModule</title>
<path fill="none" stroke="black" d="M320.64,-122.01C320.64,-138.05 320.64,-159 320.64,-159 320.64,-159 265.2,-159 265.2,-159"/>
<polygon fill="black" stroke="black" points="265.2,-155.5 255.2,-159 265.2,-162.5 265.2,-155.5"/>
</g>
<!-- SafeHtmlPipe -->
<g id="node3" class="node">
<title>SafeHtmlPipe</title>
<polygon fill="#ffffb3" stroke="black" points="252.04,-122 157.96,-122 157.96,-86 252.04,-86 252.04,-122"/>
<text text-anchor="middle" x="205" y="-99.8" font-family="Times,serif" font-size="14.00">SafeHtmlPipe</text>
</g>
<!-- SafeHtmlPipe&#45;&gt;CongaModule -->
<g id="edge3" class="edge">
<title>SafeHtmlPipe&#45;&gt;CongaModule</title>
<path fill="none" stroke="black" d="M205.61,-122.11C205.61,-122.11 205.61,-140.99 205.61,-140.99"/>
<polygon fill="black" stroke="black" points="202.11,-140.99 205.61,-150.99 209.11,-140.99 202.11,-140.99"/>
</g>
<!-- TruncatePipe -->
<g id="node4" class="node">
<title>TruncatePipe</title>
<polygon fill="#ffffb3" stroke="black" points="139.14,-122 48.86,-122 48.86,-86 139.14,-86 139.14,-122"/>
<text text-anchor="middle" x="94" y="-99.8" font-family="Times,serif" font-size="14.00">TruncatePipe</text>
</g>
<!-- TruncatePipe&#45;&gt;CongaModule -->
<g id="edge4" class="edge">
<title>TruncatePipe&#45;&gt;CongaModule</title>
<path fill="none" stroke="black" d="M105.61,-122.02C105.61,-139.37 105.61,-163 105.61,-163 105.61,-163 148.68,-163 148.68,-163"/>
<polygon fill="black" stroke="black" points="148.68,-166.5 158.68,-163 148.68,-159.5 148.68,-166.5"/>
</g>
<!-- FileSizePipe  -->
<g id="node6" class="node">
<title>FileSizePipe </title>
<polygon fill="#fb8072" stroke="black" points="456.27,-252 365.73,-252 365.73,-216 456.27,-216 456.27,-252"/>
<text text-anchor="middle" x="411" y="-229.8" font-family="Times,serif" font-size="14.00">FileSizePipe </text>
</g>
<!-- CongaModule&#45;&gt;FileSizePipe  -->
<g id="edge5" class="edge">
<title>CongaModule&#45;&gt;FileSizePipe </title>
<path fill="none" stroke="black" stroke-dasharray="5,2" d="M255.17,-173C310.59,-173 394.04,-173 394.04,-173 394.04,-173 394.04,-205.7 394.04,-205.7"/>
<polygon fill="black" stroke="black" points="390.54,-205.7 394.04,-215.7 397.54,-205.7 390.54,-205.7"/>
</g>
<!-- ImagePipe  -->
<g id="node7" class="node">
<title>ImagePipe </title>
<polygon fill="#fb8072" stroke="black" points="347.87,-252 268.13,-252 268.13,-216 347.87,-216 347.87,-252"/>
<text text-anchor="middle" x="308" y="-229.8" font-family="Times,serif" font-size="14.00">ImagePipe </text>
</g>
<!-- CongaModule&#45;&gt;ImagePipe  -->
<g id="edge6" class="edge">
<title>CongaModule&#45;&gt;ImagePipe </title>
<path fill="none" stroke="black" stroke-dasharray="5,2" d="M255.06,-180C275.78,-180 295.36,-180 295.36,-180 295.36,-180 295.36,-205.72 295.36,-205.72"/>
<polygon fill="black" stroke="black" points="291.86,-205.72 295.36,-215.72 298.86,-205.72 291.86,-205.72"/>
</g>
<!-- SafeHtmlPipe  -->
<g id="node8" class="node">
<title>SafeHtmlPipe </title>
<polygon fill="#fb8072" stroke="black" points="250.04,-252 151.96,-252 151.96,-216 250.04,-216 250.04,-252"/>
<text text-anchor="middle" x="201" y="-229.8" font-family="Times,serif" font-size="14.00">SafeHtmlPipe </text>
</g>
<!-- CongaModule&#45;&gt;SafeHtmlPipe  -->
<g id="edge7" class="edge">
<title>CongaModule&#45;&gt;SafeHtmlPipe </title>
<path fill="none" stroke="black" stroke-dasharray="5,2" d="M204.48,-187.11C204.48,-187.11 204.48,-205.99 204.48,-205.99"/>
<polygon fill="black" stroke="black" points="200.98,-205.99 204.48,-215.99 207.98,-205.99 200.98,-205.99"/>
</g>
<!-- TruncatePipe  -->
<g id="node9" class="node">
<title>TruncatePipe </title>
<polygon fill="#fb8072" stroke="black" points="134.14,-252 39.86,-252 39.86,-216 134.14,-216 134.14,-252"/>
<text text-anchor="middle" x="87" y="-229.8" font-family="Times,serif" font-size="14.00">TruncatePipe </text>
</g>
<!-- CongaModule&#45;&gt;TruncatePipe  -->
<g id="edge8" class="edge">
<title>CongaModule&#45;&gt;TruncatePipe </title>
<path fill="none" stroke="black" stroke-dasharray="5,2" d="M158.65,-175C121.73,-175 77.14,-175 77.14,-175 77.14,-175 77.14,-205.98 77.14,-205.98"/>
<polygon fill="black" stroke="black" points="73.64,-205.98 77.14,-215.98 80.64,-205.98 73.64,-205.98"/>
</g>
</g>
</svg>
