<?xml version="1.0" encoding="UTF-8" standalone="no"?>
<!DOCTYPE svg PUBLIC "-//W3C//DTD SVG 1.1//EN"
 "http://www.w3.org/Graphics/SVG/1.1/DTD/svg11.dtd">
<!-- Generated by graphviz version 2.47.0 (20210316.0004)
 -->
<!-- Title: dependencies Pages: 1 -->
<svg width="504pt" height="211pt"
 viewBox="0.00 0.00 504.00 211.00" xmlns="http://www.w3.org/2000/svg" xmlns:xlink="http://www.w3.org/1999/xlink">
<g id="graph0" class="graph" transform="scale(1 1) rotate(0) translate(4 207)">
<title>dependencies</title>
<polygon fill="white" stroke="transparent" points="-4,4 -4,-207 500,-207 500,4 -4,4"/>
<text text-anchor="start" x="227.01" y="-42.4" font-family="Times-12" font-weight="bold" font-size="14.00">Legend</text>
<polygon fill="#ffffb3" stroke="transparent" points="14,-10 14,-30 34,-30 34,-10 14,-10"/>
<text text-anchor="start" x="37.63" y="-15.4" font-family="Times-12" font-size="14.00"> &#160;Declarations</text>
<polygon fill="#8dd3c7" stroke="transparent" points="127,-10 127,-30 147,-30 147,-10 127,-10"/>
<text text-anchor="start" x="150.73" y="-15.4" font-family="Times-12" font-size="14.00"> &#160;Module</text>
<polygon fill="#80b1d3" stroke="transparent" points="213,-10 213,-30 233,-30 233,-10 213,-10"/>
<text text-anchor="start" x="236.78" y="-15.4" font-family="Times-12" font-size="14.00"> &#160;Bootstrap</text>
<polygon fill="#fdb462" stroke="transparent" points="310,-10 310,-30 330,-30 330,-10 310,-10"/>
<text text-anchor="start" x="333.67" y="-15.4" font-family="Times-12" font-size="14.00"> &#160;Providers</text>
<polygon fill="#fb8072" stroke="transparent" points="406,-10 406,-30 426,-30 426,-10 406,-10"/>
<text text-anchor="start" x="429.73" y="-15.4" font-family="Times-12" font-size="14.00"> &#160;Exports</text>
<g id="clust1" class="cluster">
<title>cluster_AuthProviderModule</title>
<polygon fill="none" stroke="black" stroke-dasharray="1,5" points="24,-70 24,-195 472,-195 472,-70 24,-70"/>
</g>
<g id="clust6" class="cluster">
<title>cluster_AuthProviderModule_providers</title>
<polygon fill="none" stroke="black" points="32,-78 32,-130 464,-130 464,-78 32,-78"/>
</g>
<!-- AuthProviderInterceptor -->
<g id="node1" class="node">
<title>AuthProviderInterceptor</title>
<ellipse fill="#fdb462" stroke="black" cx="350" cy="-104" rx="105.92" ry="18"/>
<text text-anchor="middle" x="350" y="-99.8" font-family="Times,serif" font-size="14.00">AuthProviderInterceptor</text>
</g>
<!-- AuthProviderModule -->
<g id="node3" class="node">
<title>AuthProviderModule</title>
<polygon fill="#8dd3c7" stroke="black" points="308.76,-187 305.76,-191 284.76,-191 281.76,-187 173.24,-187 173.24,-151 308.76,-151 308.76,-187"/>
<text text-anchor="middle" x="241" y="-164.8" font-family="Times,serif" font-size="14.00">AuthProviderModule</text>
</g>
<!-- AuthProviderInterceptor&#45;&gt;AuthProviderModule -->
<g id="edge1" class="edge">
<title>AuthProviderInterceptor&#45;&gt;AuthProviderModule</title>
<path fill="none" stroke="black" d="M276.46,-117.15C276.46,-117.15 276.46,-140.69 276.46,-140.69"/>
<polygon fill="black" stroke="black" points="272.96,-140.69 276.46,-150.69 279.96,-140.69 272.96,-140.69"/>
</g>
<!-- AuthProviderService -->
<g id="node2" class="node">
<title>AuthProviderService</title>
<ellipse fill="#fdb462" stroke="black" cx="133" cy="-104" rx="92.62" ry="18"/>
<text text-anchor="middle" x="133" y="-99.8" font-family="Times,serif" font-size="14.00">AuthProviderService</text>
</g>
<!-- AuthProviderService&#45;&gt;AuthProviderModule -->
<g id="edge2" class="edge">
<title>AuthProviderService&#45;&gt;AuthProviderModule</title>
<path fill="none" stroke="black" d="M199.34,-116.84C199.34,-116.84 199.34,-140.52 199.34,-140.52"/>
<polygon fill="black" stroke="black" points="195.84,-140.52 199.34,-150.52 202.84,-140.52 195.84,-140.52"/>
</g>
</g>
</svg>
